<svg xmlns="http://www.w3.org/2000/svg" xmlns:xlink="http://www.w3.org/1999/xlink" width="16" height="12" viewBox="0 0 16 12">
    <defs>
        <clipPath id="a"><path class="a" d="M6.049,11.707l-5.7-4.99a1.061,1.061,0,0,1-.125-.126h0L.205,6.572l0,0L.19,6.552l0-.005L.175,6.532l0-.005L.16,6.511l0-.006-.01-.016,0-.005-.01-.017,0,0L.119,6.444l0,0-.011-.02h0A.894.894,0,0,1,0,6.048v0c0-.007,0-.014,0-.02s0-.01,0-.015S0,6,0,6H0c0-.008,0-.017,0-.025V5.969c0-.006,0-.013,0-.019V5.9l0-.013V5.877l0-.015,0-.009,0-.015,0-.009,0-.015,0-.009,0-.015,0-.01,0-.014,0-.011,0-.012,0-.012,0-.01L.05,5.707l0-.007.007-.018,0,0,.008-.021h0a.991.991,0,0,1,.265-.363l5.714-5a1.264,1.264,0,0,1,1.616,0,.915.915,0,0,1,0,1.415L3.9,5H14.857A1.079,1.079,0,0,1,16,6a1.079,1.079,0,0,1-1.143,1H3.9l3.763,3.293a.914.914,0,0,1,0,1.414,1.261,1.261,0,0,1-1.616,0Z" transform="translate(4 6)"/></clipPath>
    </defs>
    <g transform="translate(-4 -6)"><path class="a" d="M6.049,11.707l-5.7-4.99a1.061,1.061,0,0,1-.125-.126h0L.205,6.572l0,0L.19,6.552l0-.005L.175,6.532l0-.005L.16,6.511l0-.006-.01-.016,0-.005-.01-.017,0,0L.119,6.444l0,0-.011-.02h0A.894.894,0,0,1,0,6.048v0c0-.007,0-.014,0-.02s0-.01,0-.015S0,6,0,6H0c0-.008,0-.017,0-.025V5.969c0-.006,0-.013,0-.019V5.9l0-.013V5.877l0-.015,0-.009,0-.015,0-.009,0-.015,0-.009,0-.015,0-.01,0-.014,0-.011,0-.012,0-.012,0-.01L.05,5.707l0-.007.007-.018,0,0,.008-.021h0a.991.991,0,0,1,.265-.363l5.714-5a1.264,1.264,0,0,1,1.616,0,.915.915,0,0,1,0,1.415L3.9,5H14.857A1.079,1.079,0,0,1,16,6a1.079,1.079,0,0,1-1.143,1H3.9l3.763,3.293a.914.914,0,0,1,0,1.414,1.261,1.261,0,0,1-1.616,0Z" transform="translate(4 6)"/></g>
</svg>
