<svg xmlns="http://www.w3.org/2000/svg" width="7.734" height="9.505" viewBox="0 0 7.734 9.505"><path class="a" d="M.63,9.505h0a.537.537,0,0,1-.547-.526L0,1.263A1.157,1.157,0,0,1,.33.406a1.264,1.264,0,0,1,.863-.38L6.438,0a1.273,1.273,0,0,1,.871.364,1.165,1.165,0,0,1,.348.851l.077,7.716a.525.525,0,0,1-.268.458.564.564,0,0,1-.547,0L3.8,7.727.909,9.426A.668.668,0,0,1,.63,9.505ZM6.453,1.031h0L1.2,1.079c-.042,0-.1.068-.1.174L1.16,8.042,3.5,6.658a.6.6,0,0,1,.279-.074.633.633,0,0,1,.273.064L6.629,8.021,6.563,1.205C6.563,1.1,6.5,1.031,6.453,1.031Z"/></svg>