<?xml version="1.0" encoding="UTF-8"?>
<svg viewBox="0 0 29 30" xmlns="http://www.w3.org/2000/svg">
<defs>
</defs>
<path class="a" d="M23.428,19.3a5.761,5.761,0,0,0-2.407.538,5.538,5.538,0,0,0-1.928,1.485L10.948,16.43a4.593,4.593,0,0,0,0-2.825l8.146-4.891a5.616,5.616,0,0,0,3.281,1.893,5.771,5.771,0,0,0,3.778-.587,5.418,5.418,0,0,0,2.492-2.79,5.153,5.153,0,0,0,.03-3.676A5.408,5.408,0,0,0,26.229.725,5.767,5.767,0,0,0,22.461.081a5.625,5.625,0,0,0-3.312,1.843,5.223,5.223,0,0,0-1.292,3.46A4.939,4.939,0,0,0,18.08,6.8L9.934,11.688A5.589,5.589,0,0,0,7.122,9.877a5.79,5.79,0,0,0-3.385.087,5.556,5.556,0,0,0-2.707,1.954,5.179,5.179,0,0,0,0,6.2,5.556,5.556,0,0,0,2.707,1.954,5.79,5.79,0,0,0,3.385.087,5.589,5.589,0,0,0,2.813-1.811l8.146,4.891a4.939,4.939,0,0,0-.223,1.413,5.2,5.2,0,0,0,.939,2.973,5.529,5.529,0,0,0,2.5,1.971,5.785,5.785,0,0,0,3.219.3,5.646,5.646,0,0,0,2.853-1.464,5.289,5.289,0,0,0,1.525-2.74,5.155,5.155,0,0,0-.317-3.092,5.4,5.4,0,0,0-2.052-2.4,5.736,5.736,0,0,0-3.1-.9Zm0-17.124a3.442,3.442,0,0,1,1.857.541,3.242,3.242,0,0,1,1.231,1.441,3.093,3.093,0,0,1,.19,1.855,3.173,3.173,0,0,1-.915,1.644,3.388,3.388,0,0,1-1.712.879,3.471,3.471,0,0,1-1.931-.183,3.318,3.318,0,0,1-1.5-1.183,3.115,3.115,0,0,1,.416-4.054,3.414,3.414,0,0,1,2.364-.94ZM5.6,18.228a3.442,3.442,0,0,1-1.857-.541,3.242,3.242,0,0,1-1.231-1.441,3.093,3.093,0,0,1-.19-1.855,3.173,3.173,0,0,1,.915-1.644,3.388,3.388,0,0,1,1.712-.879,3.471,3.471,0,0,1,1.931.183,3.318,3.318,0,0,1,1.5,1.183,3.115,3.115,0,0,1-.416,4.054A3.414,3.414,0,0,1,5.6,18.228ZM23.428,27.86a3.442,3.442,0,0,1-1.857-.541,3.242,3.242,0,0,1-1.231-1.441,3.093,3.093,0,0,1-.19-1.855,3.173,3.173,0,0,1,.915-1.644,3.388,3.388,0,0,1,1.712-.879,3.471,3.471,0,0,1,1.931.183,3.318,3.318,0,0,1,1.5,1.183,3.115,3.115,0,0,1-.416,4.054,3.414,3.414,0,0,1-2.364.94Z"/>
</svg>
